<svg xmlns="http://www.w3.org/2000/svg" viewBox="0 0 166 166"><path d="M83 0C37.2 0 0 37.2 0 83s37.2 83 83 83 83-37.2 83-83S128.8 0 83 0zM8.3 83c0-10.8 2.3-21.1 6.5-30.4l35.6 97.5C25.6 138.1 8.3 112.5 8.3 83zM83 157.7c-7.3 0-14.4-1.1-21.1-3.1l22.4-65.1 22.9 62.8c.2.4.4.7.5 1.1-7.7 2.8-16 4.3-24.7 4.3zM93.3 48c4.5-.3 8.5-.7 8.5-.7 4-.4 3.5-6.4-.4-6.1 0 0-12.1 1-19.8 1-7.3 0-19.7-1-19.7-1-4-.3-4.5 5.9-.4 6.1 0 0 3.8.4 7.8.7l11.6 31.8-16.3 49L37.3 48c4.5-.3 8.5-.7 8.5-.7 4-.4 3.5-6.4-.4-6.1 0 0-12.1 1-19.8 1-1.4 0-3.1 0-4.8-.1C34.1 21.8 57 8.4 83.1 8.4c19.4 0 37.2 7.5 50.4 19.6-.4 0-.6-.1-1-.1-7.3 0-12.6 6.4-12.6 13.3 0 6.1 3.5 11.3 7.3 17.5 2.8 5 6.1 11.3 6.1 20.6 0 6.4-2.5 13.8-5.7 24.2l-7.5 24.9L93.3 48zm55.2-.8c5.8 10.6 9.1 22.8 9.1 35.8 0 27.5-14.9 51.6-37.1 64.5l22.8-65.9c4.2-10.6 5.7-19.1 5.7-26.7 0-2.8-.2-5.4-.5-7.7z" fill="#fff"/></svg>